<svg aria-hidden="true" style="position:absolute;width:0;height:0;overflow:hidden" xmlns="http://www.w3.org/2000/svg">
  <defs>
    <symbol id="antenna" viewBox="0 0 32 32">
      <path fill="#212121" style="fill:var(--color1, #212121)" d="m30.773 22.098-8.443-8.505.937-4.615c.242.094.499.144.758.146h.006c1.192.014 2.17-.941 2.184-2.133s-.941-2.17-2.133-2.184c-1.192-.014-2.17.941-2.184 2.133-.003.255.039.509.125.749l-4.96.605L8.972.161a.534.534 0 0 0-.377-.16.5319.5319 0 0 0-.373.155L6.709 1.66a.5335.5335 0 0 0 0 .754l.814.826C4.37 9.038 5.394 16.218 10.042 20.903c.043.041.092.074.146.098-.034.18-.051.364-.052.547v6.187h-6.4c-1.472.002-2.665 1.195-2.667 2.667v1.067c0 .295.239.533.533.533h24.533c.295 0 .533-.239.533-.533v-1.067c-.002-1.472-1.195-2.665-2.667-2.667h-6.4v-2.742c1.003.21 2.024.317 3.049.32a14.854 14.854 0 0 0 7.04-1.783l.818.823a.534.534 0 0 0 .377.16c.14-.001.274-.056.373-.155l1.513-1.504a.5335.5335 0 0 0 0-.754zM23.28 6.233c.418-.415 1.093-.414 1.508.004s.414 1.093-.004 1.508c-.2.199-.47.31-.752.31h-.003c-.589-.003-1.064-.483-1.061-1.072.002-.282.115-.552.314-.751h-.002zm-1.256 3.505-.598 2.946-1.175-1.182 1.774-1.763zm-.605-.902-1.92 1.909-1.485-1.493 3.405-.415zM24.004 28.8c.884 0 1.6.716 1.6 1.6v.533H2.137V30.4c0-.884.716-1.6 1.6-1.6h20.267zm-7.467-2.133v1.067h-5.333v-1.067h5.333zM11.204 25.6v-4.053c0-1.294 1.196-2.347 2.667-2.347s2.667 1.053 2.667 2.347V25.6h-5.333zm6.4-1.696v-2.357c0-1.882-1.675-3.413-3.733-3.413a3.8003 3.8003 0 0 0-3.281 1.786C6.532 15.646 5.619 9.275 8.311 4.033l18.602 18.708a13.8184 13.8184 0 0 1-9.309 1.163zm11.289-.684L7.836 2.039l.755-.752 7.935 7.98c.004 0 .006.007.01.01l13.115 13.191-.757.752z"/>
      <path fill="#2196f3" style="fill:var(--color2, #2196f3)" d="M13.876 20.267h-.005c-.884-.001-1.601.714-1.602 1.598s.714 1.601 1.598 1.602h.005c.884.001 1.601-.714 1.602-1.598s-.714-1.601-1.598-1.602zm.373 1.978c-.1.1-.236.156-.378.155a.5343.5343 0 0 1-.531-.536.5325.5325 0 0 1 .53-.53c.295.002.532.241.53.536a.5325.5325 0 0 1-.157.375h.005z"/>
    </symbol>
    <symbol id="astronaut" viewBox="0 0 32 32">
      <path fill="#2196f3" style="fill:var(--color2, #2196f3)" d="M31.974 4.524a.5343.5343 0 0 0-.43-.363l-1.91-.278-.855-1.731c-.179-.365-.777-.365-.956 0l-.855 1.731-1.91.278a.5354.5354 0 0 0-.431.363.5342.5342 0 0 0 .135.547l1.383 1.348-.326 1.903c-.034.2.048.402.212.522.166.121.382.135.562.04l1.709-.899 1.709.899c.078.041.164.061.249.061.11 0 .221-.034.314-.102a.5347.5347 0 0 0 .212-.522l-.326-1.903 1.383-1.348a.5363.5363 0 0 0 .135-.547zm-2.463 1.327a.5335.5335 0 0 0-.153.472l.191 1.114-1-.526c-.078-.041-.163-.061-.249-.061s-.17.02-.249.061l-1.001.526.191-1.114a.5344.5344 0 0 0-.153-.472l-.81-.789 1.119-.163a.5324.5324 0 0 0 .402-.292l.5-1.013.5 1.013c.078.157.228.267.402.292l1.119.163-.809.789zM26.134 20.522h-1.067v1.067h1.067v-1.067zM26.134 22.656h-1.067v1.067h1.067v-1.067zM27.2 21.589h-1.067v1.067H27.2v-1.067zM25.067 21.589H24v1.067h1.067v-1.067zM22.4 26.389h-1.067v1.067H22.4v-1.067zM22.4 28.522h-1.067v1.067H22.4v-1.067zM23.467 27.456H22.4v1.067h1.067v-1.067zM21.333 27.456h-1.067v1.067h1.067v-1.067zM16 24.256h-1.067v1.067H16v-1.067zM16 26.389h-1.067v1.067H16v-1.067zM17.067 25.322H16v1.067h1.067v-1.067zM14.933 25.322h-1.067v1.067h1.067v-1.067zM5.867 6.122H4.8v1.067h1.067V6.122zM5.867 8.255H4.8v1.067h1.067V8.255z"/>
      <path fill="#2196f3" style="fill:var(--color2, #2196f3)" d="M6.933 7.189H5.866v1.067h1.067V7.189zM4.8 7.189H3.733v1.067H4.8V7.189z"/>
      <path fill="#212121" style="fill:var(--color1, #212121)" d="M24.715 14.159c-.287-.388-.709-.637-1.188-.705-.481-.068-.956.058-1.34.352l-1.252.96-1.898 1.417-1.358-.541c2.421-1.086 4.114-3.508 4.114-6.32 0-3.823-3.123-6.933-6.961-6.933s-6.961 3.11-6.961 6.933c0 1.386.414 2.674 1.12 3.758l-2.764-.024h-.005c-.009 0-.015.004-.023.005a.5147.5147 0 0 0-.155.031c-.013.005-.026.008-.038.013-.006.003-.013.003-.019.006l-3.233 1.596c-.001 0-.001 0-.001.001l-1.893.911a.3967.3967 0 0 0-.063.035c-.755.502-1.012 1.489-.598 2.295.22.429.595.745 1.056.889.178.055.359.083.539.083.29 0 .577-.071.839-.211l1.388-.738 2.264-1.169 1.357-.008L2.2 22.211c-.001.001-.001.001-.002.001L.859 23.545c-.316.315-.49.732-.49 1.178s.174.863.49 1.179c.325.323.752.485 1.179.485s.854-.162 1.18-.485l1.314-1.309 1.741-1.3.901.897-1.762 1.754c0 .001-.001.001-.002.001l-1.339 1.333c-.316.315-.49.732-.49 1.178s.174.863.49 1.179c.325.323.753.485 1.18.485s.855-.162 1.18-.485l3.482-3.467c.001-.001.001-.001.001-.002l1.01-1-.004-.004c.006-.006.015-.009.022-.015l5.166-5.658 3.471.494c.025.004.05.005.075.005.065 0 .127-.015.187-.038.018-.006.033-.015.05-.023.019-.01.039-.015.058-.027l3.213-2.133c.012-.008.018-.021.029-.029.013-.01.029-.014.041-.026l1.271-1.191c.662-.62.753-1.635.212-2.362zM2.13 17.77a.714.714 0 0 1-.558.052.7167.7167 0 0 1-.427-.358.714.714 0 0 1 .214-.902l1.314-.632.449 1.312-.992.528zm3.498-1.828-1.548.8-.439-1.283 2.027-1.001-.04 1.484zm15.099-6.62c0 .918-.219 1.785-.599 2.559l-4.181-1.899c-.044-.573-.341-1.075-.788-1.388l1.464-4.86c2.378.756 4.105 2.974 4.105 5.588zm-11.789 0c0-3.235 2.644-5.867 5.894-5.867.253 0 .5.021.745.052l-1.432 4.754c-.019-.001-.037-.006-.057-.006-1.033 0-1.873.837-1.873 1.867s.84 1.867 1.873 1.867c.694 0 1.294-.383 1.618-.945l3.862 1.755c-1.075 1.446-2.795 2.39-4.737 2.39-3.25 0-5.894-2.632-5.894-5.867zm5.956.8c0 .441-.362.8-.806.8s-.806-.359-.806-.8c0-.441.362-.8.806-.8s.806.359.806.8zM2.465 25.146c-.236.234-.619.234-.854.001-.114-.114-.176-.263-.176-.423s.062-.309.176-.421l.962-.958.851.848-.959.955zm3.214 3.734c-.236.234-.619.235-.855.001-.114-.114-.176-.263-.176-.423s.062-.309.176-.421l.963-.959.852.848-.96.955zm3.481-3.469c-.001 0-.001 0-.002.001l-1.765 1.76-.852-.848 1.763-1.755s.001-.001.002-.001c.04-.04.065-.088.09-.135.007-.014.02-.026.026-.04.017-.041.019-.085.026-.129.003-.025.014-.047.014-.073 0-.036-.013-.07-.02-.106-.006-.032-.006-.065-.019-.095-.02-.05-.055-.094-.091-.138-.01-.012-.014-.027-.025-.038h-.001c-.001 0-.001-.002-.001-.002l-1.607-1.6c-.017-.017-.039-.024-.058-.038a.5067.5067 0 0 0-.087-.058c-.03-.015-.061-.024-.093-.033a.5073.5073 0 0 0-.103-.02.5002.5002 0 0 0-.095.005.5307.5307 0 0 0-.104.02c-.034.011-.063.027-.094.045-.02.011-.042.015-.061.029L4.23 23.486l-.901-.897 2.399-2.386 4.361 4.289-.928.919zm6.819-7.017c-.015-.002-.03.004-.045.003a.5556.5556 0 0 0-.115.007.5364.5364 0 0 0-.088.021.5413.5413 0 0 0-.097.047.4923.4923 0 0 0-.083.061c-.013.011-.028.017-.04.029l-4.698 5.146-4.328-4.257 2.833-2.818c.209-.208.21-.546.002-.755a.5314.5314 0 0 0-.381-.156v-.001l-2.219.013.028-1.607 3.104.027c1.265 1.294 3.029 2.101 4.981 2.101.437 0 .864-.045 1.279-.123.04.032.079.065.13.085l2.41.96.331 1.644-3.003-.427zm4.041.178-.313-1.558 1.446-1.08.947 1.257-2.08 1.381zm3.754-2.831-.838.785-.931-1.236.831-.637c.155-.119.351-.168.543-.143.193.027.364.128.48.284.217.292.18.699-.085.947z"/>
      <path fill="#212121" style="fill:var(--color1, #212121)" d="m13.602 18.544-2.143-2.133c-.207-.207-.545-.207-.753 0l-2.142 2.133c-.1.101-.157.236-.157.378s.056.278.157.378l2.142 2.133c.104.103.241.155.377.155s.273-.052.376-.155l2.143-2.133c.1-.1.157-.236.157-.378s-.057-.278-.157-.378zm-2.519 1.759-1.387-1.381 1.387-1.381 1.387 1.381-1.387 1.381zM17.164 5.071l-.258 1.036c.071.018 1.738.452 1.738 2.149h1.067c0-2.017-1.666-2.965-2.547-3.185zM19.711 9.322h-1.067v1.067h1.067V9.322z"/>
    </symbol>
    <symbol id="clock" viewBox="0 0 32 32">
      <path fill="#212121" style="fill:var(--color1, #212121)" d="M31.297 15.301C31.295 6.849 24.442-.002 15.989 0S.686 6.855.688 15.308c.001 6.658 4.307 12.551 10.649 14.576.061.019.124.029.187.029.121 0 .239-.032.342-.094.135-.08.236-.207.283-.356l3.865-12.25c1.057-.005 1.909-.866 1.903-1.923s-.866-1.909-1.923-1.903c-.284.001-.565.067-.82.191l-5.106-5.107a.6372.6372 0 0 0-.902.016.637.637 0 0 0 0 .886l5.103 5.109c-.392.799-.168 1.764.536 2.309l-3.683 11.673C3.844 25.783.118 17.71 2.799 10.432S13.553-.572 20.831 2.109s11.004 10.754 8.323 18.032a14.0422 14.0422 0 0 1-7.462 7.973l-.398-1.874a.638.638 0 0 0-.756-.492.6348.6348 0 0 0-.292.148l-3.837 3.426a.6366.6366 0 0 0-.052.9c.076.085.174.149.283.184l4.899 1.563c.335.108.694-.077.802-.412.034-.106.04-.219.017-.328l-.391-1.839c5.664-2.388 9.342-7.942 9.329-14.089zm-15.305-.637c.352 0 .638.286.638.638s-.286.638-.638.638c-.352 0-.638-.285-.638-.638s.285-.638.638-.638zm2.101 14.864 2.184-1.948.603 2.84-2.787-.892z"/>
      <path fill="#2196f3" style="fill:var(--color2, #2196f3)" d="M15.354 3.185V4.46c0 .352.285.638.638.638s.638-.285.638-.638V3.185c0-.352-.286-.638-.638-.638s-.638.286-.638.638zM3.876 14.664c-.352 0-.638.286-.638.638s.285.638.638.638h1.275c.352 0 .638-.285.638-.638s-.285-.638-.638-.638H3.876zM28.108 15.939c.352 0 .638-.285.638-.638s-.285-.638-.638-.638h-1.275c-.352 0-.638.286-.638.638s.286.638.638.638h1.275z"/>
    </symbol>
    <symbol id="diagram" viewBox="0 0 32 32">
      <path fill="#2196f3" style="fill:var(--color2, #2196f3)" d="M14.926 14.965h1.066v4.798h-1.066v-4.797zM19.19 17.097h1.066v2.665H19.19v-2.665zM10.661 18.696h1.066v1.066h-1.066v-1.066zM7.463 18.163h1.066v1.599H7.463v-1.599z"/>
      <path fill="#212121" style="fill:var(--color1, #212121)" d="M1.599 28.291h25.587c.883 0 1.599-.716 1.599-1.599V24.56c0-.883-.716-1.599-1.599-1.599h-.533V9.668L29.681 6.8c.703.346 1.553.136 2.013-.499s.396-1.508-.152-2.068-1.42-.644-2.065-.198a1.609 1.609 0 0 0-.542 2.002L26.654 8.2V6.97c0-.883-.716-1.599-1.599-1.599H3.733c-.883 0-1.599.716-1.599 1.599v15.992h-.533c-.883 0-1.599.716-1.599 1.599v2.132c0 .883.716 1.599 1.599 1.599zM30.384 4.837c.294 0 .533.239.533.533s-.239.533-.533.533c-.294 0-.533-.239-.533-.533s.239-.533.533-.533zM3.198 6.969c0-.294.239-.533.533-.533h21.322c.294 0 .533.239.533.533v2.239l-1.066 1.013V8.035c0-.294-.239-.533-.533-.533H4.797c-.294 0-.533.239-.533.533v13.326c0 .294.239.533.533.533h19.19c.294 0 .533-.239.533-.533v-9.674l1.066-1.01v12.284H3.198V6.969zm4.798 6.93c-.721-.002-1.354.478-1.546 1.174s.105 1.433.725 1.801c.62.368 1.41.276 1.928-.226l1.853.93a.532.532 0 0 0 .636-.123l3.939-4.431 3.872 2.901a.533.533 0 0 0 .686-.039l3.365-3.188v8.131H5.33V8.569h18.124v2.66l-3.771 3.572-3.904-2.927a.5332.5332 0 0 0-.718.072l-3.993 4.493-1.493-.746c.011-.064.018-.129.02-.193 0-.883-.716-1.599-1.599-1.599zm.533 1.599c0 .294-.239.533-.533.533s-.533-.239-.533-.533c0-.294.239-.533.533-.533s.533.239.533.533zm3.198 8.529h5.331v.533c0 .294-.239.533-.533.533h-4.264a.5335.5335 0 0 1-.533-.533v-.533zm-10.661.533c0-.294.239-.533.533-.533h9.062v.533c0 .883.716 1.599 1.599 1.599h4.264c.883 0 1.599-.716 1.599-1.599v-.533h9.062c.294 0 .533.239.533.533v2.132c0 .294-.239.533-.533.533H1.598a.5335.5335 0 0 1-.533-.533V24.56z"/>
    </symbol>
    <symbol id="mail" viewBox="0 0 43 32">
      <path d="M38.667 0H4C1.794 0 0 1.794 0 4v24c0 2.206 1.794 4 4 4h34.667c2.206 0 4-1.794 4-4V4c0-2.206-1.794-4-4-4zm0 2.667c.181 0 .353.038.511.103L21.334 18.236 3.49 2.77c.158-.066.33-.103.511-.103h34.667zm0 26.666H4c-.736 0-1.333-.598-1.333-1.333V5.587L20.46 21.008a1.335 1.335 0 0 0 1.748 0L40.001 5.587V28c0 .736-.598 1.333-1.333 1.333z"/>
    </symbol>
    <symbol id="phone" viewBox="0 0 20 32">
      <path d="M17 0H3C1.346 0 0 1.346 0 3v26c0 1.654 1.346 3 3 3h14c1.654 0 3-1.346 3-3V3c0-1.654-1.346-3-3-3zM3 2h14c.552 0 1 .448 1 1v21H2V3c0-.552.448-1 1-1zm14 28H3c-.552 0-1-.448-1-1v-3h16v3c0 .552-.448 1-1 1z"/>
    </symbol>
    <symbol id="instagram" viewBox="0 0 32 32">
      <path d="M31.969 9.408c-.075-1.7-.35-2.869-.744-3.882-.406-1.075-1.032-2.038-1.851-2.838A7.8671 7.8671 0 0 0 26.542.844C25.523.45 24.36.175 22.66.1 20.947.019 20.403 0 16.059 0s-4.888.019-6.595.094c-1.7.075-2.869.35-3.882.744-1.075.406-2.038 1.031-2.838 1.85C1.931 3.488 1.3 4.457.9 5.52.506 6.539.231 7.702.156 9.402c-.081 1.713-.1 2.257-.1 6.601s.019 4.888.094 6.595c.075 1.7.35 2.869.744 3.882.406 1.075 1.038 2.038 1.85 2.838.8.813 1.769 1.444 2.832 1.844 1.019.394 2.182.669 3.882.744 1.706.075 2.25.094 6.595.094s4.888-.019 6.595-.094c1.7-.075 2.869-.35 3.882-.744a8.1843 8.1843 0 0 0 4.682-4.682c.394-1.019.669-2.182.744-3.882.075-1.707.094-2.251.094-6.595s-.006-4.888-.081-6.595zm-2.882 13.065c-.069 1.563-.331 2.407-.55 2.969a5.3097 5.3097 0 0 1-3.038 3.038c-.563.219-1.413.481-2.969.55-1.688.075-2.194.094-6.464.094s-4.782-.019-6.464-.094c-1.563-.069-2.407-.331-2.969-.55-.694-.256-1.325-.663-1.838-1.194-.531-.519-.938-1.144-1.194-1.838-.219-.563-.481-1.413-.55-2.969-.075-1.688-.094-2.194-.094-6.464s.019-4.782.094-6.464c.069-1.563.331-2.407.55-2.969.256-.694.663-1.325 1.2-1.838.519-.531 1.144-.938 1.838-1.194.563-.219 1.413-.481 2.969-.55 1.688-.075 2.194-.094 6.464-.094 4.276 0 4.782.019 6.464.094 1.563.069 2.407.331 2.969.55.694.256 1.325.662 1.838 1.194.531.519.938 1.144 1.194 1.838.219.563.481 1.413.55 2.969.075 1.688.094 2.194.094 6.464s-.019 4.77-.094 6.458z"/>
      <path d="M16.059 7.783c-4.538 0-8.22 3.682-8.22 8.22s3.682 8.22 8.22 8.22c4.539 0 8.22-3.682 8.22-8.22s-3.682-8.22-8.22-8.22zm0 13.552c-2.944 0-5.332-2.388-5.332-5.332s2.388-5.332 5.332-5.332 5.332 2.388 5.332 5.332-2.388 5.332-5.332 5.332zM26.524 7.458c0 1.06-.859 1.919-1.919 1.919s-1.919-.859-1.919-1.919.859-1.919 1.919-1.919 1.919.859 1.919 1.919z"/>
    </symbol>
    <symbol id="twitter" viewBox="0 0 32 32">
      <path d="M32 6.078c-1.19.522-2.458.868-3.78 1.036 1.36-.812 2.398-2.088 2.886-3.626-1.268.756-2.668 1.29-4.16 1.588C25.742 3.794 24.026 3 22.154 3c-3.632 0-6.556 2.948-6.556 6.562 0 .52.044 1.02.152 1.496-5.454-.266-10.28-2.88-13.522-6.862-.566.982-.898 2.106-.898 3.316 0 2.272 1.17 4.286 2.914 5.452-1.054-.02-2.088-.326-2.964-.808v.072c0 3.188 2.274 5.836 5.256 6.446-.534.146-1.116.216-1.72.216-.42 0-.844-.024-1.242-.112.85 2.598 3.262 4.508 6.13 4.57-2.232 1.746-5.066 2.798-8.134 2.798-.538 0-1.054-.024-1.57-.09C2.906 27.93 6.35 29 10.064 29c12.072 0 18.672-10 18.672-18.668 0-.29-.01-.57-.024-.848C30.014 8.56 31.108 7.406 32 6.078z"/>
    </symbol>
    <symbol id="facebook" viewBox="0 0 32 32">
      <path d="M21.329 5.313h2.921V.225C23.746.156 22.013 0 19.994 0c-4.212 0-7.097 2.649-7.097 7.519V12H8.249v5.688h4.648V32h5.699V17.689h4.46l.708-5.688h-5.169V8.082c.001-1.644.444-2.769 2.735-2.769z"/>
    </symbol>
    <symbol id="linkedin" viewBox="0 0 32 32">
      <path d="M31.992 32v-.001H32V20.263c0-5.741-1.236-10.164-7.948-10.164-3.227 0-5.392 1.771-6.276 3.449h-.093v-2.913h-6.364v21.364h6.627V21.42c0-2.785.528-5.479 3.977-5.479 3.399 0 3.449 3.179 3.449 5.657v10.401h6.62zM.528 10.636h6.635V32H.528V10.636zM3.843 0C1.722 0 0 1.721 0 3.843s1.721 3.879 3.843 3.879c2.121 0 3.843-1.757 3.843-3.879C7.685 1.722 5.963 0 3.843 0z"/>
    </symbol>
    <symbol id="logo-1" viewBox="0 0 57 32">
      <path d="m20.267 3.733 3.738 3.538-6.938-.004v17.166H35.2v-6.564l3.733 3.534V3.732H20.266zm14.769 13.722L24.439 7.423h10.597v10.032zm-3.29 4.468h-11.81V10.378h.835v10.764h10.975v.782zm-9.021 4.797-.436.898-.436-.898h-.366l.637 1.198v.698h.331v-.698l.635-1.198h-.365zm.548 1.895.154-.441h.734l.155.441h.344l-.717-1.896h-.296l-.716 1.896h.342zm.521-1.493.275.786h-.549l.275-.786zm1.737.741a.4288.4288 0 0 0-.072.241c0 .16.056.29.168.389s.263.148.451.148.349-.051.484-.152l.107.126h.367l-.279-.329c.109-.149.164-.341.164-.574h-.275c0 .128-.026.243-.079.348l-.366-.432.129-.094c.091-.066.157-.132.197-.198s.06-.14.06-.219c0-.12-.044-.22-.133-.301s-.201-.122-.339-.122c-.153 0-.274.043-.365.13s-.135.203-.135.352c0 .061.014.124.043.189s.081.144.155.237c-.141.101-.235.188-.283.262zm.855.419c-.093.071-.193.107-.299.107-.095 0-.17-.027-.227-.082s-.085-.126-.085-.214c0-.102.052-.192.156-.271l.04-.029.414.488zm-.34-.84c-.089-.11-.134-.202-.134-.275 0-.063.018-.116.055-.158s.085-.063.147-.063c.057 0 .105.018.142.053s.056.077.056.126c0 .075-.027.136-.081.184l-.04.033-.145.099zm3.086 1.03c.13-.114.205-.272.224-.474h-.328c-.017.135-.059.232-.124.29s-.162.087-.292.087c-.142 0-.249-.054-.323-.161s-.109-.264-.109-.469v-.168c.002-.202.041-.355.117-.46s.188-.158.331-.158c.123 0 .217.03.28.091s.104.158.12.294h.328c-.021-.207-.095-.368-.223-.482s-.296-.171-.505-.171c-.155 0-.293.037-.411.111s-.209.179-.272.315c-.063.136-.095.294-.095.473v.177c.003.174.035.328.098.46s.151.234.266.306c.115.071.249.107.4.107.216 0 .389-.056.52-.169zm1.936-.266c.064-.141.096-.304.096-.49v-.105c-.001-.185-.034-.347-.099-.486s-.158-.247-.277-.32c-.119-.075-.256-.112-.41-.112s-.292.038-.411.113c-.119.075-.211.183-.277.324s-.098.305-.098.49v.107c.001.181.034.342.099.48s.159.246.279.322c.121.075.258.112.411.112.155 0 .293-.037.411-.112s.212-.183.276-.323zm-.352-1.071c.08.112.12.273.12.483v.099c0 .214-.04.376-.119.487s-.19.167-.336.167c-.144 0-.257-.057-.339-.171s-.121-.275-.121-.483v-.109c.002-.204.043-.362.122-.473s.192-.168.335-.168c.146 0 .258.056.337.168z"/>
    </symbol>
    <symbol id="logo-2" viewBox="0 0 57 32">
      <path d="M26.727 3.165h-.073c-.112-.007-.224-.01-.336-.012h-.243c-.212 0-.428.005-.642.016a.4004.4004 0 0 0-.049 0c-1.944.11-3.848.596-5.609 1.431l-.231.111V16.52l.54-.183c.474-.163.978-.309 1.5-.445 1.411-.362 2.861-.555 4.317-.574v1.551c-.193.001-.38.007-.568.016h-.045c-1.121.061-2.233.232-3.322.51a16.858 16.858 0 0 0-3.957 1.542V3.792a15.8475 15.8475 0 0 1 4.151-1.688c1.278-.33 2.593-.5 3.913-.504h.228c.273.007.538.019.788.038.658.046 1.31.15 1.95.311v1.527c-.621-.145-1.253-.24-1.889-.285l-.039-.003c-.132-.011-.263-.022-.386-.022zm2.688 1.561c.339.026.689.038 1.044.038 1.388-.005 2.769-.182 4.114-.528 1.378-.346 2.706-.865 3.956-1.543v14.875a15.8809 15.8809 0 0 1-4.153 1.688c-1.279.329-2.593.498-3.913.503-1 .008-1.997-.11-2.968-.35V4.438c.229.053.465.102.706.142.394.066.81.115 1.214.145zm7.57.115-.54.182c-.497.167-.997.316-1.5.449-1.465.377-2.971.57-4.483.575-.352 0-.676-.01-.989-.03l-.43-.028v12.148l.37.033c.343.03.696.045 1.052.045 1.191-.005 2.377-.159 3.531-.457.95-.238 1.874-.57 2.759-.991l.231-.111V4.843zM19.06 24.113c-.078-.08-.171-.144-.274-.186s-.214-.061-.326-.057a.8952.8952 0 0 0-.347.065c-.101.04-.193.101-.27.178s-.135.17-.174.271a.8928.8928 0 0 0-.062.335v2.023c-.005.143.022.284.08.415.048.104.117.196.202.271a.718.718 0 0 0 .278.144c.098.028.2.042.302.042.113.001.224-.023.326-.07a.8552.8552 0 0 0 .27-.187.9002.9002 0 0 0 .177-.271.832.832 0 0 0 .065-.323v-.226h-.529v.18a.4585.4585 0 0 1-.031.18.3154.3154 0 0 1-.077.114.3275.3275 0 0 1-.111.058.3802.3802 0 0 1-.111.019c-.047.006-.095-.002-.139-.021s-.081-.049-.11-.088a.4786.4786 0 0 1-.07-.271v-1.887a.6429.6429 0 0 1 .065-.302c.027-.043.066-.077.112-.098s.097-.03.147-.024c.046-.002.091.008.132.028s.077.049.104.086c.059.078.09.173.088.271v.175h.524v-.206a.9533.9533 0 0 0-.065-.354.8279.8279 0 0 0-.177-.285zM22.202 24.09a.9413.9413 0 0 0-.602-.222c-.108 0-.215.02-.316.057a.8552.8552 0 0 0-.279.165.82.82 0 0 0-.205.283.959.959 0 0 0-.077.392v1.941c-.004.137.023.272.077.397.048.104.118.197.205.271.081.075.176.133.279.171.101.037.208.056.316.057s.215-.02.316-.057a.8782.8782 0 0 0 .286-.171.8488.8488 0 0 0 .2-.271.9345.9345 0 0 0 .077-.397v-1.941a.9428.9428 0 0 0-.077-.392.8675.8675 0 0 0-.2-.283zm-.247 2.616c.004.052-.003.104-.021.152s-.047.092-.084.128a.3858.3858 0 0 1-.498 0c-.037-.036-.066-.08-.084-.128s-.025-.101-.021-.152v-1.941c-.004-.052.003-.104.021-.152s.047-.092.084-.128a.3858.3858 0 0 1 .498 0c.037.036.066.08.084.128s.025.101.021.152v1.941zM26.329 27.573v-3.674h-.509l-.668 1.945h-.009l-.673-1.945h-.503v3.674h.525v-2.235h.009l.514 1.58h.262l.518-1.58h.009v2.235h.525zM29.311 24.157a.7269.7269 0 0 0-.297-.201 1.168 1.168 0 0 0-.38-.057h-.78v3.674h.523v-1.435h.27a.964.964 0 0 0 .472-.1.759.759 0 0 0 .287-.281.8747.8747 0 0 0 .12-.32c.021-.138.03-.278.028-.418.005-.176-.012-.353-.051-.525a.7848.7848 0 0 0-.193-.338zm-.27 1.12a.4507.4507 0 0 1-.049.191.2959.2959 0 0 1-.135.129.5385.5385 0 0 1-.247.046h-.239v-1.249h.27a.506.506 0 0 1 .236.046c.054.031.097.079.123.136.029.065.044.134.046.205v.244c0 .085.005.174 0 .252h-.005zM31.791 23.899h-.429l-.809 3.674h.523l.154-.789h.714l.154.789h.524l-.83-3.674zm-.483 2.384.258-1.332h.009l.256 1.332h-.524zM35.173 26.112h-.009l-.791-2.213h-.503v3.674h.523v-2.209h.011l.8 2.209h.492v-3.674h-.523v2.213zM38.372 23.899l-.421 1.461h-.011l-.421-1.461h-.554l.719 2.121v1.553h.524V26.02l.719-2.121h-.554zM17.6 28.61h.252v.708h.171v-.708h.251v-.145h-.675v.145zM19.721 28.465l-.331.853h.182l.07-.194h.34l.073.194h.186l-.339-.853h-.182zm-.027.516.116-.316.116.316h-.232zM21.818 29.004h.197v.11a.3321.3321 0 0 1-.202.072c-.034.002-.069-.004-.1-.019s-.059-.036-.081-.063a.3516.3516 0 0 1-.063-.222c0-.19.082-.285.246-.285.043-.004.086.007.121.032s.061.062.072.104l.169-.033c-.036-.167-.156-.251-.362-.251a.4259.4259 0 0 0-.298.11c-.043.042-.076.094-.097.15s-.03.117-.025.178c-.005.117.034.231.109.32.042.043.092.077.148.098s.116.031.176.027c.134.004.263-.045.362-.136v-.336h-.37v.144zM23.959 28.465h-.173v.853h.598v-.145h-.425v-.708zM25.769 28.465h-.173v.853h.173v-.853zM27.539 29.035l-.349-.57h-.167v.853h.161v-.557l.343.557h.171v-.853h-.158v.57zM29.14 28.943h.425v-.145h-.425v-.187h.457v-.145h-.63v.853h.648v-.145h-.475v-.231zM33.02 28.802h-.336v-.336h-.171v.853h.171v-.373h.336v.373h.171v-.853h-.171v.336zM34.629 28.943h.426v-.145h-.426v-.187h.459v-.145h-.63v.853h.646v-.145h-.475v-.231zM36.812 28.943c.148-.023.224-.102.224-.237a.2028.2028 0 0 0-.084-.189.4788.4788 0 0 0-.25-.05h-.362v.853h.171v-.357h.034c.037-.002.073.004.107.019a.181.181 0 0 1 .061.062l.186.271h.205L37 29.148a.599.599 0 0 0-.189-.205zm-.172-.118h-.127v-.214h.135c.059-.005.118.002.174.02.012.011.022.025.029.04s.009.032.009.049c-.001.017-.005.033-.013.048s-.019.027-.032.037a.4862.4862 0 0 1-.174.02zM38.458 28.943h.425v-.145h-.425v-.187h.459v-.145h-.631v.853h.648v-.145h-.475v-.231z"/>
    </symbol>
    <symbol id="logo-3" viewBox="0 0 57 32">
      <path d="M19.417 26.187c.008 0 .017.002.025.005s.015.007.02.013l.116.111c-.09.09-.202.162-.327.211a1.299 1.299 0 0 1-.464.076 1.213 1.213 0 0 1-.436-.071.9416.9416 0 0 1-.329-.2.8775.8775 0 0 1-.212-.308 1.02 1.02 0 0 1-.074-.396.9622.9622 0 0 1 .08-.397.91.91 0 0 1 .225-.308c.099-.087.218-.155.349-.201.143-.048.296-.072.449-.071.143-.003.285.019.417.064.115.043.221.104.313.178l-.097.119a.0849.0849 0 0 1-.025.021.0663.0663 0 0 1-.039.009.0865.0865 0 0 1-.042-.013l-.052-.032-.073-.04a.8182.8182 0 0 0-.097-.039 1.1546 1.1546 0 0 0-.132-.032 1.1103 1.1103 0 0 0-.173-.013.9517.9517 0 0 0-.323.053.7366.7366 0 0 0-.253.149.6827.6827 0 0 0-.164.238.8103.8103 0 0 0-.06.313c-.002.108.018.216.06.318.035.087.09.167.161.236a.68.68 0 0 0 .241.147.867.867 0 0 0 .3.05c.059.001.119-.003.177-.01.096-.01.188-.039.269-.085a.8296.8296 0 0 0 .115-.078c.015-.012.035-.02.055-.02zM22.776 25.629a.9745.9745 0 0 1-.078.393c-.047.114-.122.218-.219.305s-.214.155-.344.2c-.285.094-.599.094-.884 0a1.0268 1.0268 0 0 1-.342-.201.904.904 0 0 1-.221-.308 1.0225 1.0225 0 0 1 0-.787c.05-.115.125-.22.221-.31.097-.084.214-.15.342-.193.284-.096.6-.096.884 0 .129.046.246.114.343.201.096.088.17.191.22.304.054.127.08.261.078.395zm-.306 0a.839.839 0 0 0-.055-.316.653.653 0 0 0-.156-.236.6826.6826 0 0 0-.246-.149 1.0245 1.0245 0 0 0-.643 0 .6826.6826 0 0 0-.246.149.6308.6308 0 0 0-.157.236.9274.9274 0 0 0 0 .632.643.643 0 0 0 .157.236c.068.065.152.115.246.148.207.067.435.067.643 0a.6978.6978 0 0 0 .246-.148c.07-.069.123-.149.156-.236a.8199.8199 0 0 0 .055-.316zM25.067 25.96l.03.071c.012-.025.022-.048.033-.071a.6797.6797 0 0 1 .038-.07l.743-1.174c.015-.02.028-.033.042-.037.02-.005.04-.007.061-.006h.22v1.909h-.26V25.119a.7264.7264 0 0 1 0-.066l-.747 1.19c-.009.018-.025.033-.044.043s-.041.016-.064.016h-.042c-.023 0-.045-.005-.064-.016s-.034-.026-.044-.044l-.769-1.198v1.533h-.252v-1.905h.22c.021-.001.041.001.061.006.018.008.032.021.041.037l.759 1.175c.015.022.028.045.038.068zM27.864 25.865v.715h-.291v-1.906h.649c.122-.002.244.012.362.042.094.023.181.064.256.119.065.052.114.116.145.187.034.078.051.161.049.244a.5463.5463 0 0 1-.054.244.5405.5405 0 0 1-.157.191c-.075.057-.162.1-.257.126-.113.031-.232.046-.35.044l-.352-.005zm0-.205h.352a.808.808 0 0 0 .225-.029c.06-.018.115-.046.163-.082a.3325.3325 0 0 0 .099-.126.3585.3585 0 0 0 .035-.16c.003-.053-.007-.106-.029-.155s-.057-.094-.102-.13c-.111-.075-.251-.112-.391-.102h-.352v.786zM31.772 26.583h-.23a.1088.1088 0 0 1-.064-.018.1226.1226 0 0 1-.038-.044l-.198-.461h-.993l-.205.461a.1069.1069 0 0 1-.101.062h-.23l.872-1.909h.302l.884 1.909zm-1.439-.709h.82l-.346-.777a1.2765 1.2765 0 0 1-.065-.179l-.034.1c-.01.03-.022.058-.032.081l-.343.776zM33.029 24.682c.017.008.032.02.044.034l1.272 1.439V24.673h.26v1.909h-.145a.1364.1364 0 0 1-.06-.011.1649.1649 0 0 1-.047-.035l-1.271-1.438c.001.022.001.044 0 .066v1.419h-.26v-1.909h.154c.018 0 .036.003.052.009zM36.748 25.823v.758h-.291v-.758l-.804-1.15h.26a.114.114 0 0 1 .063.016c.016.012.029.027.039.043l.503.742c.02.032.038.061.052.088s.026.054.036.081l.038-.082c.014-.03.031-.059.049-.087l.496-.747c.01-.015.023-.028.038-.04.017-.013.04-.02.063-.019h.263l-.806 1.155zM24.923 21.47c.127.014.255.025.384.035 1.962-.763 3.622-2.011 4.772-3.588s1.74-3.415 1.695-5.282l-2.162-1.879c.44 1.988.234 4.043-.594 5.935s-2.245 3.547-4.094 4.779z"/>
      <path d="m24.151 21.383.058.01c1.975-1.228 3.482-2.942 4.323-4.921s.981-4.133.4-6.181l-3.08-2.676c1.246 2.2 1.747 4.661 1.446 7.098s-1.393 4.75-3.147 6.67zM34.596 14.841c-.523 2.052-1.794 3.902-3.624 5.276-.534.404-1.111.763-1.722 1.074 1.49-.38 2.859-1.053 4.003-1.966s2.03-2.042 2.592-3.3l-1.249-1.084z"/>
      <path d="m34.106 14.539-1.778-1.545c-.034 1.762-.61 3.483-1.669 4.986s-2.562 2.731-4.352 3.559h.009c.399 0 .798-.021 1.194-.062 1.673-.593 3.151-1.537 4.303-2.748s1.94-2.65 2.295-4.189zM24.409 6.486 22.287 4.64c-1.897.637-3.528 1.756-4.68 3.212s-1.772 3.179-1.778 4.946c.007 1.952.763 3.846 2.149 5.383s3.322 2.628 5.501 3.101c1.946-2.06 3.085-4.605 3.252-7.266s-.647-5.299-2.323-7.53zM39.008 14.255c-.008-2.316-1.07-4.535-2.955-6.173s-4.439-2.561-7.105-2.567c-1.232-.001-2.453.196-3.602.582l12.99 11.286c.445-.998.673-2.058.672-3.128z"/>
    </symbol>
    <symbol id="logo-4" viewBox="0 0 57 32">
      <path d="M12.878 11.255h-.002c-1.279 0-2.316.921-2.316 2.058v.001c0 1.137 1.037 2.058 2.316 2.058h.002c1.279 0 2.316-.921 2.316-2.058v-.001c0-1.137-1.037-2.058-2.316-2.058zM29.971 10.597c-.004-1.579-.711-3.092-1.967-4.208s-2.958-1.745-4.735-1.749c-1.777.003-3.48.631-4.737 1.748s-1.964 2.63-1.968 4.209v8.706s13.405-1.327 13.406-8.704v-.001zM5.867 22.16c.003 1.098.496 2.151 1.369 2.928s2.058 1.215 3.294 1.218c1.236-.003 2.42-.441 3.294-1.218s1.366-1.829 1.37-2.927v-6.057s-9.327.924-9.327 6.056zm4.663 1.085c-.242 0-.478-.064-.678-.183s-.357-.289-.45-.487c-.092-.198-.117-.417-.069-.627s.163-.404.334-.556c.171-.152.388-.255.625-.297s.482-.02.706.062c.223.082.414.221.548.4s.206.388.206.603c.001.143-.031.284-.092.417s-.151.252-.264.353c-.114.101-.248.182-.397.236s-.308.083-.468.083v-.004zM19.956 22.647h-.9v.93h-.469v-2.275h1.481v.38h-1.012v.588h.9v.378zm2.253-.156c0 .224-.04.42-.119.589s-.193.299-.341.391c-.147.092-.316.137-.506.137-.189 0-.357-.045-.505-.136s-.262-.22-.344-.387c-.081-.169-.122-.363-.123-.581v-.112c0-.224.04-.421.12-.591.081-.171.195-.302.342-.392.148-.092.317-.137.506-.137s.358.046.505.137c.148.091.262.221.342.392.081.17.122.366.122.589v.102zm-.475-.103c0-.238-.043-.42-.128-.544s-.207-.186-.366-.186c-.157 0-.279.061-.364.184-.085.122-.129.301-.13.538v.111c0 .232.043.412.128.541s.208.192.369.192c.157 0 .278-.061.363-.184.084-.124.127-.304.128-.541v-.111zm1.996.592c0-.089-.031-.156-.094-.203-.063-.048-.175-.098-.337-.15-.163-.053-.291-.105-.386-.156-.258-.14-.387-.328-.387-.564 0-.123.034-.232.103-.328.07-.097.169-.172.298-.227.13-.054.276-.081.438-.081.163 0 .307.03.434.089.127.058.226.141.295.248s.106.229.106.366h-.469c0-.104-.033-.185-.098-.242s-.158-.087-.277-.087c-.115 0-.204.024-.267.073-.064.048-.095.111-.095.191 0 .074.037.136.111.186.075.05.185.097.33.141.267.08.461.18.583.298s.183.267.183.444c0 .197-.075.352-.223.464-.149.111-.349.167-.602.167-.175 0-.334-.032-.478-.095-.144-.065-.254-.153-.33-.264s-.113-.241-.113-.388h.47c0 .251.15.377.45.377.111 0 .198-.022.261-.067.063-.046.094-.109.094-.191zm2.501-1.298h-.697v1.895h-.469v-1.895h-.687v-.38h1.853v.38zm1.638.909h-.9v.609h1.056v.377H26.5v-2.275h1.522v.38h-1.053v.542h.9v.367zm1.273.153h-.373v.833H28.3v-2.275h.845c.269 0 .476.06.622.18s.219.289.219.508c0 .155-.034.285-.102.389-.067.103-.168.185-.305.247l.492.93v.022h-.503l-.427-.833zm-.373-.379h.378c.118 0 .209-.03.273-.089.065-.06.097-.143.097-.248 0-.107-.031-.192-.092-.253-.06-.061-.154-.092-.28-.092h-.377v.683zm2.84.41v.802h-.469v-2.275h.887c.171 0 .321.031.45.094s.23.152.3.267c.07.115.105.245.105.392 0 .223-.077.399-.23.528-.152.128-.363.192-.633.192h-.411zm0-.379h.419c.124 0 .218-.029.283-.088.066-.058.098-.142.098-.25 0-.111-.033-.202-.098-.27s-.156-.104-.272-.106h-.43v.714zm2.966.195h-.9v.609h1.056v.377h-1.525v-2.275h1.522v.38h-1.053v.542h.9v.367zm2.175-.909h-.697v1.895h-.469v-1.895h-.688v-.38h1.853v.38zm1.637.909h-.9v.609h1.056v.377h-1.525v-2.275h1.522v.38h-1.053v.542h.9v.367zm1.274.153h-.373v.833h-.469v-2.275h.845c.269 0 .476.06.622.18s.219.289.219.508c0 .155-.034.285-.102.389-.067.103-.168.185-.305.247l.492.93v.022h-.503l-.427-.833zm-.374-.379h.378c.118 0 .209-.03.273-.089.065-.06.097-.143.097-.248 0-.107-.031-.192-.092-.253-.06-.061-.154-.092-.28-.092h-.377v.683zm2.755.615c0-.089-.031-.156-.094-.203-.063-.048-.175-.098-.337-.15-.163-.053-.291-.105-.386-.156-.258-.14-.388-.328-.388-.564 0-.123.034-.232.103-.328.07-.097.169-.172.298-.227.13-.054.276-.081.438-.081.163 0 .307.03.434.089.127.058.226.141.295.248.071.107.106.229.106.366h-.469c0-.104-.033-.185-.098-.242s-.158-.087-.277-.087c-.115 0-.204.024-.267.073-.064.048-.095.111-.095.191 0 .074.037.136.111.186.075.05.185.097.33.141.267.08.461.18.583.298s.183.267.183.444c0 .197-.074.352-.223.464-.149.111-.349.167-.602.167-.175 0-.334-.032-.478-.095-.144-.065-.254-.153-.33-.264-.075-.111-.112-.241-.112-.388h.47c0 .251.15.377.45.377.111 0 .198-.022.261-.067.063-.046.094-.109.094-.191z"/>
    </symbol>
    <symbol id="logo-5" viewBox="0 0 57 32">
      <path d="M14.27 23.859c.13.147.199.332.196.521.007.123-.017.247-.07.361s-.132.216-.233.297c-.252.175-.565.26-.881.24h-1.549v-3.302h1.517c.299-.018.596.059.84.219.098.075.176.17.227.277s.074.224.068.341c.009.182-.054.361-.176.505-.118.131-.28.222-.462.258.205.034.391.134.523.282zm-1.816-.499h.648c.147.01.294-.029.412-.11.049-.04.087-.09.111-.146s.034-.116.028-.176c.005-.06-.005-.12-.029-.175s-.061-.106-.108-.147a.665.665 0 0 0-.425-.111h-.638v.866zm1.124 1.267c.052-.041.093-.093.12-.151s.038-.121.034-.184c.004-.064-.008-.127-.035-.186s-.069-.111-.121-.153a.7144.7144 0 0 0-.44-.119h-.68v.908h.689c.155.008.309-.032.435-.114zM17.371 25.278l-.844-1.291h-.317v1.291h-.726v-3.302h1.374c.346-.022.689.078.957.281.192.179.308.415.327.666s-.061.499-.224.7c-.17.178-.401.296-.655.336l.898 1.32h-.789zm-1.161-1.74h.594c.412 0 .618-.167.618-.5.004-.068-.007-.136-.033-.2s-.066-.122-.118-.171c-.13-.099-.298-.147-.467-.134h-.601l.007 1.005zM21.339 24.614h-1.446l-.255.665h-.761l1.328-3.265h.823l1.323 3.265h-.761l-.25-.665zm-.194-.5-.529-1.394-.529 1.394h1.057zM26.305 25.278h-.721l-1.616-2.245v2.245h-.719v-3.302h.719l1.616 2.258v-2.258h.721v3.302zM30.417 24.488c-.149.249-.376.452-.652.582-.314.145-.662.217-1.013.208h-1.283v-3.302h1.283c.351-.008.698.061 1.013.203.276.127.503.328.652.576.148.269.226.565.226.866s-.077.598-.226.866zm-.824-.079c.206-.219.319-.499.319-.788s-.113-.569-.319-.788c-.249-.199-.573-.3-.902-.281h-.5v2.137h.5c.329.019.654-.082.902-.281zM21.79 3.609s9.301 3.215 9.103 7.867v7.869s-9.294-3.217-9.1-7.869l-.004-7.867zM39.179 17.503c1.757-1.107 3.788-1.792 5.909-1.994v-2.463c-2.444.862-4.517 2.426-5.909 4.457z"/>
      <path d="M38.124 18.245c1.438-2.651 3.93-4.696 6.964-5.715V5.432s-13.245 4.58-12.965 11.205V27.84s.59-.205 1.519-.589c0-.358 0-.719.042-1.082.274-3.076 1.871-5.926 4.44-7.924z"/>
      <path d="M36.864 22.407c.07-.777.225-1.546.463-2.294-1.599 1.725-2.568 3.866-2.77 6.122-.019.213-.03.426-.035.645.752-.331 1.628-.744 2.548-1.229a10.6241 10.6241 0 0 1-.206-3.244zM37.391 22.447c-.088.982-.033 1.969.164 2.938 3.619-1.983 7.685-5.046 7.528-8.748v-.323c-2.585.265-5.004 1.3-6.885 2.946-.44 1.02-.712 2.094-.807 3.188z"/>
    </symbol>
    <symbol id="logo-6" viewBox="0 0 59 32">
      <path d="M29.713 15.098c-.154-.205-.228-.448-.21-.692v-1.003c0-.307.07-.541.209-.701s.379-.239.718-.239c.319 0 .546.068.679.204.146.174.217.386.201.6v.236h-.571v-.239c.002-.078-.003-.156-.017-.234-.008-.053-.037-.102-.082-.139a.3295.3295 0 0 0-.207-.054c-.078-.005-.156.015-.217.057a.2697.2697 0 0 0-.095.153c-.016.082-.024.165-.022.248v1.217c-.009.117.016.235.073.342.028.036.068.065.114.083s.097.025.147.019a.314.314 0 0 0 .202-.055c.047-.04.076-.092.085-.148.013-.081.019-.162.018-.244v-.247h.571v.225c.016.223-.053.445-.197.63-.131.149-.355.223-.683.223s-.577-.08-.717-.245zM32.089 15.109c-.144-.156-.216-.384-.216-.685v-1.055c0-.298.072-.523.216-.676s.385-.229.723-.229c.336 0 .575.076.72.229s.217.379.217.676v1.055c0 .298-.073.526-.22.684s-.385.236-.717.236c-.332 0-.578-.08-.723-.235zm.989-.253a.592.592 0 0 0 .069-.312v-1.292c.007-.105-.017-.21-.067-.306-.029-.037-.069-.066-.117-.084s-.099-.024-.151-.018c-.051-.006-.103 0-.151.018s-.088.047-.117.084a.569.569 0 0 0-.069.306v1.298c-.007.107.016.215.069.312.033.033.074.059.12.077s.096.027.147.027c.051 0 .101-.009.147-.027s.087-.044.12-.077v-.006zM34.436 12.495h.614l.462 1.946.473-1.946h.598l.061 2.809h-.442l-.047-1.952-.456 1.952h-.354l-.473-1.96-.044 1.96h-.447l.056-2.809zM37.332 12.495h.957c.551 0 .827.266.827.798 0 .509-.29.764-.871.763h-.326v1.249h-.591l.003-2.809zm.818 1.201c.058.006.118.002.174-.014s.107-.041.151-.075c.068-.095.098-.206.085-.317a.8806.8806 0 0 0-.029-.255c-.008-.028-.023-.054-.043-.077s-.046-.042-.074-.057a.6207.6207 0 0 0-.264-.045h-.229v.839h.229zM39.968 12.495h.635l.651 2.809h-.551l-.129-.648h-.566l-.133.648h-.559l.651-2.809zm.543 1.836-.221-1.179-.221 1.179h.442zM41.78 12.495h.414l.792 1.603v-1.603h.49v2.809h-.393l-.797-1.673v1.673h-.507l.001-2.809zM44.624 14.233l-.658-1.734h.554l.402 1.114.377-1.114h.543l-.65 1.734v1.071h-.567v-1.071zM30.625 16.533v.147h-.482v1.142h-.202V16.68h-.484v-.147h1.169zM32.137 17.821h-.156a.0684.0684 0 0 1-.044-.012.063.063 0 0 1-.026-.03l-.139-.306h-.669l-.139.306a.0843.0843 0 0 1-.021.035.0668.0668 0 0 1-.044.012h-.156l.591-1.288h.206l.598 1.283zm-.979-.478h.558l-.236-.524c-.017-.04-.032-.08-.044-.121-.008.024-.015.048-.022.068l-.021.054-.234.523zM33.155 17.695c.037.002.074.002.111 0a.7515.7515 0 0 0 .095-.015.8193.8193 0 0 0 .085-.023c.026-.009.052-.02.079-.032v-.29h-.236c-.006 0-.012 0-.017-.002s-.011-.004-.015-.008c-.004-.003-.007-.006-.009-.011s-.003-.008-.003-.013v-.099h.458v.494c-.037.023-.077.044-.118.061s-.086.033-.131.044a1.206 1.206 0 0 1-.148.027 1.65 1.65 0 0 1-.172.008.8822.8822 0 0 1-.298-.048.7339.7339 0 0 1-.236-.135.6089.6089 0 0 1-.152-.204.635.635 0 0 1-.054-.267.6759.6759 0 0 1 .053-.269c.034-.076.086-.146.152-.204s.148-.103.236-.134a.995.995 0 0 1 .317-.048c.055 0 .11.004.164.011.048.007.095.018.141.033.041.013.081.03.118.051s.071.043.103.067l-.057.08a.055.055 0 0 1-.046.025.0787.0787 0 0 1-.037-.01.4803.4803 0 0 1-.058-.031.558.558 0 0 0-.079-.035.7942.7942 0 0 0-.109-.029.8417.8417 0 0 0-.15-.011.6761.6761 0 0 0-.228.036.5125.5125 0 0 0-.174.102.4545.4545 0 0 0-.11.16c-.053.14-.053.29 0 .43.026.061.066.116.118.162.048.044.107.079.173.102.075.022.155.031.234.026zM35.039 17.674h.645v.147h-.842v-1.288h.202l-.005 1.142zM36.355 17.821h-.202v-1.288h.202v1.288zM37.106 16.539c.012.006.023.014.031.023l.864.971a.353.353 0 0 1 0-.046V16.527h.176v1.294h-.102a.095.095 0 0 1-.044-.007.1278.1278 0 0 1-.032-.024l-.863-.97v1.002h-.169v-1.289h.105c.011 0 .023.002.033.006zM39.665 16.533v.142h-.716v.425h.58v.137h-.58v.44h.716v.142h-.924v-1.285h.924zM18.491 8.576l8.972 2.199v7.707l-8.972-2.198V8.576zm-.575-.657v8.739l10.122 2.482v-8.738L17.916 7.919z"/>
      <path d="m23.34 23.197-10.123-2.484v-8.739l10.123 2.483v8.74z"/>
      <path d="m18.083 8.477 8.855 2.172-3.766 3.252-8.856-2.173 3.767-3.251zm-.167-.558-4.698 4.056 10.123 2.483 4.697-4.056-10.122-2.483zM23.91 22.706l4.127-3.564-4.127-1.013v4.577z"/>
    </symbol>
    <symbol id="close" viewBox="0 0 32 32">
<path d="M32 3.223l-3.223-3.223-12.777 12.777-12.777-12.777-3.223 3.223 12.777 12.777-12.777 12.777 3.223 3.223 12.777-12.777 12.777 12.777 3.223-3.223-12.777-12.777 12.777-12.777z"></path>
</symbol>
<symbol id="email" viewBox="0 0 32 32">
<path d="M26.667 5.333h-21.333c-1.467 0-2.653 1.2-2.653 2.667l-0.013 16c0 1.467 1.2 2.667 2.667 2.667h21.333c1.467 0 2.667-1.2 2.667-2.667v-16c0-1.467-1.2-2.667-2.667-2.667zM26.133 11l-9.427 5.893c-0.427 0.267-0.987 0.267-1.413 0l-9.427-5.893c-0.333-0.213-0.533-0.573-0.533-0.96 0-0.893 0.973-1.427 1.733-0.96l8.933 5.587 8.933-5.587c0.76-0.467 1.733 0.067 1.733 0.96 0 0.387-0.2 0.747-0.533 0.96z"></path>
</symbol>
<symbol id="name" viewBox="0 0 32 32">
<path d="M16 16c2.947 0 5.333-2.387 5.333-5.333s-2.387-5.333-5.333-5.333c-2.947 0-5.333 2.387-5.333 5.333s2.387 5.333 5.333 5.333zM16 18.667c-3.56 0-10.667 1.787-10.667 5.333v1.333c0 0.733 0.6 1.333 1.333 1.333h18.667c0.733 0 1.333-0.6 1.333-1.333v-1.333c0-3.547-7.107-5.333-10.667-5.333z"></path>
</symbol>
<symbol id="call" viewBox="0 0 32 32">
<path d="M24.882 19.773l-3.268-0.373c-0.785-0.090-1.557 0.18-2.11 0.733l-2.367 2.367c-3.641-1.853-6.626-4.825-8.478-8.478l2.38-2.38c0.553-0.553 0.823-1.325 0.733-2.11l-0.373-3.242c-0.154-1.299-1.248-2.277-2.56-2.277h-2.226c-1.454 0-2.663 1.209-2.573 2.663 0.682 10.987 9.469 19.761 20.443 20.443 1.454 0.090 2.663-1.119 2.663-2.573v-2.226c0.013-1.3-0.965-2.393-2.264-2.547z"></path>
</symbol>
<symbol id="check" viewBox="0 0 34 32">
<path fill="#2196f3" style="fill: var(--color1, #2196f3)" d="M4.267 0h25.6c2.356 0 4.267 1.91 4.267 4.267v23.467c0 2.356-1.91 4.267-4.267 4.267h-25.6c-2.356 0-4.267-1.91-4.267-4.267v-23.467c0-2.356 1.91-4.267 4.267-4.267z"></path>
<path fill="#fff" style="fill: var(--color2, #fff); stroke: var(--color2, #fff)" stroke="#fff" stroke-linejoin="miter" stroke-linecap="butt" stroke-miterlimit="4" stroke-width="0.4267" d="M8.442 16.537l-0.147-0.14-2.205 2.088 7.767 7.41 16.318-15.567-2.19-2.089-14.128 13.465-5.416-5.167z"></path>
</symbol>
<symbol id="nocheck" viewBox="0 0 34 32">
<path d="M30.341 3.556v24.889h-26.548v-24.889h26.548zM30.341 0h-26.548c-2.086 0-3.793 1.6-3.793 3.556v24.889c0 1.956 1.707 3.556 3.793 3.556h26.548c2.086 0 3.793-1.6 3.793-3.556v-24.889c0-1.956-1.707-3.556-3.793-3.556z"></path>
</symbol>
<symbol id="send" viewBox="0 0 32 32">
<path fill="#fff" style="fill: var(--color1, #fff)" d="M32 0l-32 18 10.227 3.788 15.773-14.788-11.998 16.186 0.010 0.004-0.012-0.004v8.814l5.735-6.691 7.265 2.691 5-28z"></path>
</symbol>
<symbol id="menu" viewBox="0 0 32 32">
<path d="M6.4 11.733v-2.133h19.2v2.133h-19.2zM6.4 17.067h19.2v-2.133h-19.2v2.133zM6.4 22.4h19.2v-2.133h-19.2v2.133z"></path>
</symbol>
<symbol id="mobile-close" viewBox="0 0 32 32">
<path d="M23.733 10.304l-1.504-1.504-5.963 5.963-5.963-5.963-1.504 1.504 5.963 5.963-5.963 5.963 1.504 1.504 5.963-5.963 5.963 5.963 1.504-1.504-5.963-5.963 5.963-5.963z"></path>
</symbol>
  </defs>
</svg>
